<svg xmlns="http://www.w3.org/2000/svg" version="1.1" viewBox="213.84 442.79999999999995 585.36 174.96" style="max-height: 500px" width="585.36" height="174.96">
<path transform="translate(0,0)" fill="#FEFEFE" d="M0 0 C356.4 0 712.8 0 1080 0 C1080 356.4 1080 712.8 1080 1080 C723.6 1080 367.2 1080 0 1080 C0 723.6 0 367.2 0 0 Z"/>
<path transform="translate(302.443359375,469.595947265625)" fill="#050505" d="M0 0 C0.64910843 -0.00686325 1.29821686 -0.0137265 1.96699524 -0.02079773 C4.11168313 -0.03909282 6.25564149 -0.03522521 8.40039062 -0.02954102 C9.89107502 -0.03410121 11.38175731 -0.0394063 12.87243652 -0.04542542 C15.99626203 -0.05436153 19.11983195 -0.0519275 22.24365234 -0.04199219 C26.24894613 -0.03049529 30.25335923 -0.05072133 34.25853729 -0.07990932 C37.33662528 -0.09824476 40.41450112 -0.09798438 43.49263 -0.0922718 C44.96943905 -0.0921183 46.44626221 -0.09818713 47.92301941 -0.11056328 C49.9870043 -0.12542464 52.04934813 -0.11483581 54.11328125 -0.09765625 C55.87508728 -0.097407 55.87508728 -0.097407 57.67248535 -0.09715271 C60.55664062 0.40405273 60.55664062 0.40405273 62.43806458 2.30375671 C63.69917228 4.67167752 63.90673384 6.06636952 63.84960938 8.73217773 C63.83994141 9.53139648 63.83027344 10.33061523 63.8203125 11.15405273 C63.79517578 11.97905273 63.77003906 12.80405273 63.74414062 13.65405273 C63.72383789 14.91475586 63.72383789 14.91475586 63.703125 16.20092773 C63.66787527 18.26891211 63.61407083 20.33656544 63.55664062 22.40405273 C64.80832031 22.65670898 66.06 22.90936523 67.34960938 23.16967773 C72.21858995 24.40113614 73.76280273 26.30010776 76.30273438 30.55639648 C79.18397207 37.09976806 80.55664062 44.27373865 80.55664062 51.40405273 C81.21664062 51.40405273 81.87664062 51.40405273 82.55664062 51.40405273 C82.88664062 50.08405273 83.21664062 48.76405273 83.55664062 47.40405273 C86.52664063 47.73405273 89.49664062 48.06405273 92.55664062 48.40405273 C92.88664063 49.72405273 93.21664062 51.04405273 93.55664062 52.40405273 C91.09637492 55.27436273 88.70174849 57.30731416 85.55664062 59.40405273 C86.6077366 62.38215799 87.76898037 64.71592674 89.55664062 67.34155273 C94.53341008 74.96223096 93.8247565 82.64128627 93.55664062 91.40405273 C93.5319873 92.26691895 93.50733398 93.12978516 93.48193359 94.01879883 C93.3967138 96.75216271 93.29293228 99.48413369 93.18164062 102.21655273 C93.15094482 103.09456543 93.12024902 103.97257813 93.08862305 104.87719727 C93.04970947 105.69687988 93.0107959 106.5165625 92.97070312 107.36108398 C92.93928223 108.09302979 92.90786133 108.82497559 92.87548828 109.57910156 C92.55664062 111.40405273 92.55664062 111.40405273 90.55664062 113.40405273 C88.52539062 113.64697266 88.52539062 113.64697266 86.05664062 113.63452148 C84.72632813 113.63162109 84.72632813 113.63162109 83.36914062 113.62866211 C82.44101562 113.61641602 81.51289063 113.60416992 80.55664062 113.59155273 C79.16445313 113.59058594 79.16445313 113.59058594 77.74414062 113.58959961 C70.83738437 113.5444246 70.83738437 113.5444246 68.55664062 112.40405273 C68.55664062 110.42405273 68.55664062 108.44405273 68.55664062 106.40405273 C41.16664063 106.40405273 13.77664063 106.40405273 -14.44335938 106.40405273 C-14.44335938 108.05405273 -14.44335938 109.70405273 -14.44335938 111.40405273 C-17.49309622 113.43721063 -18.13292805 113.65890353 -21.56835938 113.66967773 C-22.35726563 113.67225586 -23.14617187 113.67483398 -23.95898438 113.67749023 C-24.77882813 113.66975586 -25.59867187 113.66202148 -26.44335938 113.65405273 C-27.673125 113.6656543 -27.673125 113.6656543 -28.92773438 113.67749023 C-29.71664063 113.67491211 -30.50554687 113.67233398 -31.31835938 113.66967773 C-32.03765625 113.66742187 -32.75695312 113.66516602 -33.49804688 113.6628418 C-35.44335938 113.40405273 -35.44335938 113.40405273 -38.44335938 111.40405273 C-38.94628906 109.03198242 -38.94628906 109.03198242 -39.11523438 106.07592773 C-39.17904297 104.99633789 -39.24285156 103.91674805 -39.30859375 102.80444336 C-39.52204743 97.41860495 -39.66703377 92.04421987 -39.69335938 86.65405273 C-39.71398437 85.5828418 -39.73460937 84.51163086 -39.75585938 83.40795898 C-39.79386399 75.68352109 -39.29265367 69.53132696 -33.88085938 63.59155273 C-33.07648438 62.86967773 -32.27210938 62.14780273 -31.44335938 61.40405273 C-30.78335937 60.41405273 -30.12335938 59.42405273 -29.44335938 58.40405273 C-30.22710937 58.11530273 -31.01085937 57.82655273 -31.81835938 57.52905273 C-34.44335938 56.40405273 -34.44335938 56.40405273 -36.44335938 54.40405273 C-36.75585938 51.90405273 -36.75585938 51.90405273 -36.44335938 49.40405273 C-32.99306896 47.10385912 -31.49781579 46.97272758 -27.44335938 47.40405273 C-26.78335937 48.39405273 -26.12335938 49.38405273 -25.44335938 50.40405273 C-24.85754532 48.9675619 -24.27491094 47.52977449 -23.69335938 46.09155273 C-23.14228516 44.73030273 -23.14228516 44.73030273 -22.58007812 43.34155273 C-21.46110412 40.44990857 -20.48498647 37.53293044 -19.50585938 34.59155273 C-17.63643664 29.36751371 -15.54616956 25.95545783 -10.44335938 23.40405273 C-10.42877686 22.81390381 -10.41419434 22.22375488 -10.39916992 21.61572266 C-10.32467094 18.94034044 -10.22801942 16.26620381 -10.13085938 13.59155273 C-10.10830078 12.6627832 -10.08574219 11.73401367 -10.0625 10.77709961 C-10.02705078 9.88442383 -9.99160156 8.99174805 -9.95507812 8.07202148 C-9.92889404 7.24984131 -9.90270996 6.42766113 -9.87573242 5.58056641 C-8.77500534 0.03963927 -5.00980373 0.02304558 0 0 Z"/>
<path transform="translate(268.1627197265625,467.8730163574219)" fill="#F5F5F5" d="M0 0 C1.11901199 -0.00281982 2.23802399 -0.00563965 3.39094543 -0.00854492 C4.62942734 -0.00652069 5.86790924 -0.00449646 7.1439209 -0.00241089 C9.08756783 -0.00503937 9.08756783 -0.00503937 11.07048035 -0.00772095 C14.63443364 -0.01229493 18.19835811 -0.01050587 21.76231194 -0.00734186 C25.48412023 -0.00481808 29.20592599 -0.00715585 32.92773438 -0.00872803 C39.1790003 -0.01054967 45.43025442 -0.00814355 51.68151855 -0.00338745 C58.91889151 0.00205516 66.1562363 0.0002925 73.39360857 -0.00521386 C79.59656787 -0.00974514 85.79951866 -0.01039546 92.00247908 -0.00777519 C95.71201 -0.0062125 99.42152766 -0.00601843 103.13105774 -0.00931168 C107.26426881 -0.01272445 111.39743097 -0.00800041 115.53063965 -0.00241089 C116.76912155 -0.00443512 118.00760345 -0.00645935 119.28361511 -0.00854492 C120.40262711 -0.0057251 121.5216391 -0.00290527 122.67456055 0 C123.65312767 0.00037703 124.63169479 0.00075405 125.63991547 0.0011425 C127.83728027 0.12698364 127.83728027 0.12698364 128.83728027 1.12698364 C128.93299998 2.61982163 128.95916254 4.1171802 128.95753479 5.61308289 C128.95960104 7.06355058 128.95960104 7.06355058 128.96170902 8.54332066 C128.95811091 9.61708423 128.95451281 10.6908478 128.95080566 11.79714966 C128.9509262 12.93717155 128.95104673 14.07719343 128.95117092 15.25176144 C128.95042137 18.96149041 128.94279119 22.67116985 128.93493652 26.38088989 C128.93346724 28.66340104 128.93244644 30.94591252 128.93188477 33.22842407 C128.92663035 41.71544905 128.91266929 50.20246683 128.89978027 58.68948364 C128.87915527 77.64385864 128.85853027 96.59823364 128.83728027 116.12698364 C84.28728027 116.12698364 39.73728027 116.12698364 -6.16271973 116.12698364 C-6.18334473 97.17260864 -6.20396973 78.21823364 -6.22521973 58.68948364 C-6.23432373 52.69477905 -6.24342773 46.70007446 -6.25280762 40.52371216 C-6.25732422 33.22842407 -6.25732422 33.22842407 -6.25816345 29.81800842 C-6.25970351 27.42555048 -6.2632297 25.03309333 -6.26829529 22.64064026 C-6.27556871 19.02612958 -6.27662728 15.41166651 -6.27624512 11.79714966 C-6.27984323 10.72338609 -6.28344133 9.64962252 -6.28714848 8.54332066 C-6.28577098 7.57634219 -6.28439348 6.60936373 -6.28297424 5.61308289 C-6.28389604 4.76595513 -6.28481783 3.91882738 -6.28576756 3.04602909 C-6.03172894 -0.91593967 -3.36164767 0.00129519 0 0 Z M25.9556427 3.52017212 C24.46307746 5.66462097 24.49735345 7.0562699 24.53649902 9.65432739 C24.52812012 10.5289563 24.51974121 11.40358521 24.5111084 12.30471802 C24.5202041 14.14075119 24.54098996 15.97676458 24.5736084 17.81253052 C24.537815 20.3727004 24.4552948 22.64046741 23.83728027 25.12698364 C20.92712402 27.50979614 20.92712402 27.50979614 17.83728027 29.12698364 C16.45090731 30.97007163 16.45090731 30.97007163 15.71228027 33.06448364 C15.40419434 33.83663208 15.0961084 34.60878052 14.77868652 35.40432739 C13.2819881 39.73295311 11.94693088 44.10412259 10.66931152 48.50198364 C9.83728027 51.12698364 9.83728027 51.12698364 8.83728027 52.12698364 C8.17728027 51.13698364 7.51728027 50.14698364 6.83728027 49.12698364 C2.78282385 48.69565849 1.28757069 48.82679003 -2.16271973 51.12698364 C-2.8301585 53.54043031 -2.8301585 53.54043031 -2.16271973 56.12698364 C0.83555126 59.23203617 0.83555126 59.23203617 4.83728027 60.12698364 C4.36677246 60.61167114 3.89626465 61.09635864 3.41149902 61.59573364 C2.78888184 62.26604614 2.16626465 62.93635864 1.52478027 63.62698364 C0.60245605 64.60151489 0.60245605 64.60151489 -0.33850098 65.59573364 C-5.55362348 72.8321349 -5.57858425 79.76239484 -5.41271973 88.37698364 C-5.40756348 89.43272583 -5.40240723 90.48846802 -5.39709473 91.57620239 C-5.34409138 96.98916905 -5.15398403 102.39504976 -4.83459473 107.79885864 C-4.77884277 108.77435669 -4.72309082 109.74985474 -4.66564941 110.75491333 C-4.37434064 113.49066824 -4.37434064 113.49066824 -1.16271973 115.12698364 C0.81562975 115.4326532 0.81562975 115.4326532 2.96228027 115.39260864 C3.75118652 115.39518677 4.54009277 115.39776489 5.35290527 115.40042114 C6.5826709 115.38881958 6.5826709 115.38881958 7.83728027 115.37698364 C8.65712402 115.38471802 9.47696777 115.39245239 10.32165527 115.40042114 C11.11056152 115.39784302 11.89946777 115.39526489 12.71228027 115.39260864 C13.79122559 115.38922485 13.79122559 115.38922485 14.89196777 115.38577271 C17.16081465 115.22916805 17.16081465 115.22916805 19.83728027 113.12698364 C19.83728027 111.47698364 19.83728027 109.82698364 19.83728027 108.12698364 C47.22728027 108.12698364 74.61728027 108.12698364 102.83728027 108.12698364 C102.83728027 110.10698364 102.83728027 112.08698364 102.83728027 114.12698364 C106.49070421 115.95369561 110.81567186 115.31169086 114.83728027 115.31448364 C116.22946777 115.33285278 116.22946777 115.33285278 117.64978027 115.35159302 C118.98009277 115.35449341 118.98009277 115.35449341 120.33728027 115.35745239 C121.55931152 115.36361572 121.55931152 115.36361572 122.80603027 115.36990356 C125.06425861 115.3120975 125.06425861 115.3120975 126.83728027 113.12698364 C127.20656737 111.24602555 127.20656737 111.24602555 127.25134277 109.08401489 C127.29041748 108.26457397 127.32949219 107.44513306 127.36975098 106.6008606 C127.40028564 105.7226062 127.43082031 104.84435181 127.46228027 103.93948364 C127.49732666 103.04124878 127.53237305 102.14301392 127.56848145 101.21755981 C127.63563777 99.38807845 127.69741607 97.55839167 127.75378418 95.72854614 C127.82813288 93.41199707 127.9293342 91.09842906 128.03649902 88.78323364 C128.35402163 78.009363 125.7637171 71.80498042 119.83728027 63.12698364 C119.83728027 62.46698364 119.83728027 61.80698364 119.83728027 61.12698364 C121.33337402 60.01370239 121.33337402 60.01370239 123.27478027 58.81448364 C126.34507927 56.75014149 126.34507927 56.75014149 127.77478027 53.31448364 C127.79540527 52.59260864 127.81603027 51.87073364 127.83728027 51.12698364 C124.32951243 49.52343263 121.69373148 48.906615 117.83728027 49.12698364 C117.50728027 50.44698364 117.17728027 51.76698364 116.83728027 53.12698364 C116.17728027 53.12698364 115.51728027 53.12698364 114.83728027 53.12698364 C114.71353027 52.01323364 114.58978027 50.89948364 114.46228027 49.75198364 C114.25827949 48.20973769 114.04959071 46.66810764 113.83728027 45.12698364 C113.68839355 43.91848755 113.68839355 43.91848755 113.53649902 42.68557739 C112.56839092 36.43687961 110.66733886 30.45352261 105.83728027 26.12698364 C103.17849009 25.20558205 100.61113502 24.6760353 97.83728027 24.12698364 C97.87208496 22.87401489 97.90688965 21.62104614 97.94274902 20.33010864 C97.97089155 18.6790804 97.99819121 17.02803764 98.02478027 15.37698364 C98.04991699 14.55198364 98.07505371 13.72698364 98.10095215 12.87698364 C98.11062012 12.07776489 98.12028809 11.27854614 98.13024902 10.45510864 C98.14595947 9.72195435 98.16166992 8.98880005 98.17785645 8.23342896 C97.71650349 5.37998574 96.87474401 4.1842435 94.83728027 2.12698364 C91.85658028 1.5242836 91.85658028 1.5242836 88.3939209 1.62527466 C87.74481247 1.61987167 87.09570404 1.61446869 86.42692566 1.60890198 C84.28199618 1.59639787 82.13840473 1.6129145 79.99353027 1.63088989 C78.50284759 1.63073494 77.0121645 1.6292466 75.52148438 1.6264801 C72.39756456 1.62509537 69.27410347 1.63766576 66.15026855 1.66043091 C62.14507162 1.68881636 58.14063695 1.68607951 54.13538361 1.6733408 C51.05728642 1.66638724 47.97936557 1.67416908 44.90129089 1.68659782 C43.4245013 1.69111552 41.9476928 1.69144634 40.47090149 1.68753242 C38.4070859 1.68462322 36.34432232 1.70111087 34.28063965 1.72293091 C33.10610229 1.72833389 31.93156494 1.73373688 30.72143555 1.73930359 C27.84034608 1.89035509 27.84034608 1.89035509 25.9556427 3.52017212 Z"/>
<path transform="translate(302.708740234375,497.725341796875)" fill="#FBFBFB" d="M0 0 C0.66554901 -0.00511093 1.33109802 -0.01022186 2.01681519 -0.01548767 C4.21125343 -0.02935842 6.40537671 -0.02842887 8.59985352 -0.02612305 C10.12915666 -0.03001136 11.65845873 -0.03434631 13.1877594 -0.03910828 C16.39132184 -0.04656505 19.59477407 -0.04628317 22.79833984 -0.04101562 C26.89853639 -0.03522152 30.99828112 -0.05215284 35.09840298 -0.0753603 C38.25631843 -0.09011013 41.41412537 -0.09096766 44.57206917 -0.08785057 C46.08350583 -0.08836315 47.59494867 -0.09358907 49.10635185 -0.10366249 C51.22223941 -0.11603439 53.3372509 -0.10923175 55.453125 -0.09765625 C56.65573471 -0.09828568 57.85834442 -0.0989151 59.09739685 -0.0995636 C63.22235633 0.38375388 65.85137167 1.83096088 68.76782227 4.75512695 C73.76045142 12.17614376 73.43505799 17.37491539 75.29125977 27.2746582 C44.27125977 27.2746582 13.25125977 27.2746582 -18.70874023 27.2746582 C-16.00925837 8.37828515 -16.00925837 8.37828515 -10.70874023 2.2746582 C-7.21205741 -0.03914271 -4.12775505 0.01582456 0 0 Z"/>
<path transform="translate(551,517)" fill="#454545" d="M0 0 C28.26943005 0 28.26943005 0 33.875 4.5078125 C36.70941479 8.58228376 37.72791119 11.86537872 37.421875 16.85546875 C36.51513305 21.46474034 34.13733396 24.16780442 30.4375 26.875 C28 28 28 28 25 28 C28.80475834 33.96655284 32.92236576 39.50260621 37.4609375 44.93359375 C39 47 39 47 39 49 C34.40429356 49.90761601 30.56301348 50.17593079 26 49 C22.06653084 45.67416006 19.52075187 41.05144687 16.97558594 36.63476562 C15.94230248 34.83354428 15.94230248 34.83354428 14.2265625 32.671875 C13 31 13 31 13 29 C12.34 29 11.68 29 11 29 C11 35.93 11 42.86 11 50 C7.37 50 3.74 50 0 50 C0 33.5 0 17 0 0 Z"/>
<path transform="translate(263,469)" fill="#FBFBFB" d="M0 0 C11.22 0 22.44 0 34 0 C33.67 0.66 33.34 1.32 33 2 C32.34 2 31.68 2 31 2 C31.00112793 2.64549805 31.00225586 3.29099609 31.00341797 3.95605469 C30.99129201 6.88842718 30.93363592 9.81820411 30.875 12.75 C30.87886719 14.27367187 30.87886719 14.27367187 30.8828125 15.828125 C30.80796501 18.67232972 30.67550651 21.23465408 30 24 C27.07421875 26.46484375 27.07421875 26.46484375 24 28 C22.64748011 29.77513362 22.64748011 29.77513362 21.9375 31.8125 C21.63199219 32.58078125 21.32648438 33.3490625 21.01171875 34.140625 C18.91573098 40.06442055 16.92307999 46.01796018 15 52 C14.56816406 51.51015625 14.13632812 51.0203125 13.69140625 50.515625 C11.99586924 48.68903866 11.99586924 48.68903866 8.9375 48.75 C6.06814404 48.81186321 6.06814404 48.81186321 4 50 C3.49758678 52.3295947 3.49758678 52.3295947 4 55 C6.90412546 57.35322796 6.90412546 57.35322796 10 59 C8.95180903 61.44577892 8.02345675 62.97805659 6.0625 64.8125 C3.37747132 67.66025769 2.40063567 70.35834727 1 74 C0.67 74 0.34 74 0 74 C0 49.58 0 25.16 0 0 Z"/>
<path transform="translate(718,532)" fill="#494949" d="M0 0 C2.30078125 1.02734375 2.30078125 1.02734375 4 2 C4.33 1.34 4.66 0.68 5 0 C8.63 0 12.26 0 16 0 C16 11.55 16 23.1 16 35 C12.37 35 8.74 35 5 35 C4.67 34.34 4.34 33.68 4 33 C3.43796875 33.3196875 2.8759375 33.639375 2.296875 33.96875 C-1.75410645 35.787558 -5.66200485 35.72841898 -10 35 C-14.69113111 32.85548292 -17.97175005 29.89846267 -20 25.125 C-21.6805389 19.34746102 -21.86446662 14.38824658 -19.4375 8.8125 C-14.98811881 0.95244333 -8.83574864 -1.40602365 0 0 Z"/>
<path transform="translate(496,532)" fill="#494949" d="M0 0 C2.30078125 1.02734375 2.30078125 1.02734375 4 2 C4.33 1.34 4.66 0.68 5 0 C8.63 0 12.26 0 16 0 C16 11.55 16 23.1 16 35 C12.37 35 8.74 35 5 35 C4.67 34.34 4.34 33.68 4 33 C3.43796875 33.3196875 2.8759375 33.639375 2.296875 33.96875 C-1.75410645 35.787558 -5.66200485 35.72841898 -10 35 C-14.69113111 32.85548292 -17.97175005 29.89846267 -20 25.125 C-21.6805389 19.34746102 -21.86446662 14.38824658 -19.4375 8.8125 C-14.98811881 0.95244333 -8.83574864 -1.40602365 0 0 Z"/>
<path transform="translate(472,522)" fill="#454545" d="M0 0 C-0.17625835 2.37948772 -0.69719773 3.70225849 -2.40234375 5.37890625 C-3.90649092 6.62115486 -5.45129851 7.81376056 -7 9 C-7.99 8.34 -8.98 7.68 -10 7 C-14.2886003 4.57412508 -17.10602613 4.378543 -22 5 C-25.5898898 6.76107801 -27.52102719 8.34540383 -29.875 11.5625 C-31.7663613 17.34165954 -32.07070628 23.29505781 -29.8125 29 C-26.91166106 32.20092573 -24.84739198 33.79410746 -20.44140625 34.28515625 C-14.86381979 34.45921933 -10.81280566 34.12181988 -6 31 C-3.69 32.98 -1.38 34.96 1 37 C-0.22340213 40.6702064 -1.83704879 41.29925941 -5.11328125 43.1328125 C-11.94947785 46.27491528 -20.80773369 46.19619332 -27.9296875 44.1640625 C-34.8299497 41.03901974 -38.81815204 36.41636121 -42.1328125 29.70703125 C-44.2221046 23.18505185 -44.32001832 13.8512802 -41.5 7.5 C-37.76882233 1.46968116 -31.98936215 -3.43103344 -25.1953125 -5.5625 C-15.46500211 -7.50163659 -8.11527176 -5.41018118 0 0 Z"/>
<path transform="translate(619.4375,533.5625)" fill="#444444" d="M0 0 C4.21306001 2.48285056 5.7933004 4.86706769 7.5625 9.4375 C7.5625 12.7375 7.5625 16.0375 7.5625 19.4375 C-0.3575 19.4375 -8.2775 19.4375 -16.4375 19.4375 C-14.9375 23.4375 -14.9375 23.4375 -12.4375 24.4375 C-7.61137057 24.71593054 -3.93842174 24.19395727 0.5625 22.4375 C2.2125 24.4175 3.8625 26.3975 5.5625 28.4375 C-0.92752982 33.87509255 -6.17102814 34.02643258 -14.4375 33.4375 C-19.53827581 32.28892105 -22.56845667 29.79419542 -25.4375 25.4375 C-28.26216381 20.63761839 -28.15767989 15.86135476 -27.4375 10.4375 C-25.56225578 5.38940953 -22.39556026 1.44208714 -17.51953125 -0.9375 C-11.68394582 -2.68927049 -5.59219096 -2.41006737 0 0 Z"/>
<path transform="translate(632,532)" fill="#4B4B4B" d="M0 0 C3.63 0 7.26 0 11 0 C11.33 0.66 11.66 1.32 12 2 C12.639375 1.67 13.27875 1.34 13.9375 1 C18.03873119 -0.33917753 21.72505846 -0.6295823 26 0 C29.93909728 2.31207884 31.95885704 4.96123449 34 9 C34.34057617 11.9543457 34.34057617 11.9543457 34.29296875 15.17578125 C34.2784668 16.91118164 34.2784668 16.91118164 34.26367188 18.68164062 C34.23853516 19.87982422 34.21339844 21.07800781 34.1875 22.3125 C34.16719727 24.1387793 34.16719727 24.1387793 34.14648438 26.00195312 C34.11119261 29.00175345 34.06188481 32.00064975 34 35 C30.37 35 26.74 35 23 35 C22.96261719 33.36289062 22.92523437 31.72578125 22.88671875 30.0390625 C22.82107703 27.90101806 22.75462909 25.76299826 22.6875 23.625 C22.66494141 22.54476562 22.64238281 21.46453125 22.61914062 20.3515625 C22.5659668 18.8046875 22.5659668 18.8046875 22.51171875 17.2265625 C22.48553467 16.27346191 22.45935059 15.32036133 22.43237305 14.33837891 C22.28968994 13.56671387 22.14700684 12.79504883 22 12 C19.16426737 9.66224971 19.16426737 9.66224971 15.875 10.25 C14.92625 10.4975 13.9775 10.745 13 11 C11.76939579 13.46120841 11.7942277 15.25776866 11.68359375 18.0078125 C11.64169922 18.99394531 11.59980469 19.98007812 11.55664062 20.99609375 C11.51732422 22.02863281 11.47800781 23.06117188 11.4375 24.125 C11.39431641 25.16527344 11.35113281 26.20554687 11.30664062 27.27734375 C11.20037232 29.8513983 11.09966473 32.42568131 11 35 C7.37 35 3.74 35 0 35 C0 23.45 0 11.9 0 0 Z"/>
<path transform="translate(677,518)" fill="#494949" d="M0 0 C3.63 0 7.26 0 11 0 C11 4.95 11 9.9 11 15 C13.31 15 15.62 15 18 15 C18 17.64 18 20.28 18 23 C15.69 23 13.38 23 11 23 C11 31.58 11 40.16 11 49 C7.37 49 3.74 49 0 49 C0 40.75 0 32.5 0 24 C-2.64 24 -5.28 24 -8 24 C-8 20.7 -8 17.4 -8 14 C-5.36 14 -2.72 14 0 14 C0 9.38 0 4.76 0 0 Z"/>
<path transform="translate(288,576)" fill="#F9F9F9" d="M0 0 C27.39 0 54.78 0 83 0 C83.495 3.465 83.495 3.465 84 7 C55.62 7 27.24 7 -2 7 C-1.34 4.69 -0.68 2.38 0 0 Z"/>
<path transform="translate(741,515)" fill="#494949" d="M0 0 C3.63 0 7.26 0 11 0 C11 17.16 11 34.32 11 52 C7.37 52 3.74 52 0 52 C0 34.84 0 17.68 0 0 Z"/>
<path transform="translate(519,532)" fill="#494949" d="M0 0 C3.63 0 7.26 0 11 0 C11 0.66 11 1.32 11 2 C11.99 1.34 12.98 0.68 14 0 C16.375 -0.265625 16.375 -0.265625 19 -0.25 C19.86625 -0.25515625 20.7325 -0.2603125 21.625 -0.265625 C24 0 24 0 27 2 C26.37224433 3.35208914 25.69580267 4.68163705 25 6 C24.443125 7.11375 24.443125 7.11375 23.875 8.25 C20.89849947 11.02806716 17.98467911 10.12649775 14 10 C11.43863779 12.56136221 11.70333143 13.66561331 11.5859375 17.2265625 C11.52792969 18.7734375 11.52792969 18.7734375 11.46875 20.3515625 C11.4378125 21.43179688 11.406875 22.51203125 11.375 23.625 C11.31699219 25.25695312 11.31699219 25.25695312 11.2578125 26.921875 C11.16334154 29.61429745 11.08057419 32.30712584 11 35 C7.37 35 3.74 35 0 35 C0 23.45 0 11.9 0 0 Z"/>
<path transform="translate(262,469)" fill="#B9B9B9" d="M0 0 C0.33 0 0.66 0 1 0 C1.13245229 9.34698955 1.26295041 18.69400399 1.39115143 28.04105282 C1.45077825 32.38423406 1.51100539 36.72740501 1.57275391 41.07055664 C1.64413997 46.09779398 1.71334906 51.1250582 1.78125 56.15234375 C1.79248901 56.97367168 1.80372803 57.79499962 1.81530762 58.64121628 C1.96545744 69.77645156 2.05910445 80.90860455 1.93762207 92.04490662 C1.87100568 102.06626082 1.87100568 102.06626082 3 112 C5.50878451 113.25439225 7.20896992 113.12584028 10.01722717 113.12698364 C11.07871475 113.12980347 12.14020233 113.13262329 13.2338562 113.13552856 C14.40328766 113.13350433 15.57271912 113.1314801 16.77758789 113.12939453 C18.00522354 113.13114685 19.23285919 113.13289917 20.49769592 113.13470459 C23.86945944 113.13835892 27.24116183 113.13749225 30.61292195 113.1343255 C34.13586464 113.13179901 37.65880465 113.1341402 41.18174744 113.13571167 C47.09748811 113.13753228 53.0132163 113.13512965 58.92895508 113.13037109 C65.77724394 113.12492617 72.62550304 113.12669324 79.47379118 113.1321975 C85.34556333 113.13672873 91.2173265 113.13737921 97.08909982 113.13475883 C100.59964291 113.13319643 104.11017199 113.13300132 107.62071419 113.13629532 C111.5310902 113.13970806 115.44143261 113.13498415 119.35180664 113.12939453 C120.52326233 113.13141876 121.69471802 113.13344299 122.90167236 113.13552856 C124.489674 113.13129883 124.489674 113.13129883 126.10975647 113.12698364 C127.03540437 113.12660662 127.96105227 113.12622959 128.9147501 113.12584114 C130.98907808 113.23199777 130.98907808 113.23199777 132 112 C132.15655027 110.51361008 132.25066943 109.02050873 132.31640625 107.52734375 C132.35830078 106.62822266 132.40019531 105.72910156 132.44335938 104.80273438 C132.48267578 103.85720703 132.52199219 102.91167969 132.5625 101.9375 C132.60568359 100.98810547 132.64886719 100.03871094 132.69335938 99.06054688 C132.79979276 96.70718647 132.90181008 94.35371646 133 92 C133.66 92 134.32 92 135 92 C135 99.59 135 107.18 135 115 C90.45 115 45.9 115 0 115 C0 77.05 0 39.1 0 0 Z"/>
<path transform="translate(276,547)" fill="#F3F3F3" d="M0 0 C18.19986404 -0.56288239 18.19986404 -0.56288239 24.6875 3.8125 C26.38849263 6.64748772 25.76729004 7.88449345 25 11 C21.5627834 11.11604679 18.12606914 11.18719508 14.6875 11.25 C13.71103516 11.28351562 12.73457031 11.31703125 11.72851562 11.3515625 C10.79072266 11.36445312 9.85292969 11.37734375 8.88671875 11.390625 C7.59060669 11.4220459 7.59060669 11.4220459 6.26831055 11.45410156 C4 11 4 11 2.23754883 9.20996094 C0.56027731 6.21476232 0.32558928 3.38612848 0 0 Z"/>
<path transform="translate(382,547)" fill="#F5F5F5" d="M0 0 C-0.61425061 7.49385749 -0.61425061 7.49385749 -2.2265625 9.609375 C-4.56669749 11.44437072 -5.93763008 11.34658854 -8.88671875 11.29296875 C-9.82451172 11.28330078 -10.76230469 11.27363281 -11.72851562 11.26367188 C-12.70498047 11.23853516 -13.68144531 11.21339844 -14.6875 11.1875 C-16.16959961 11.16719727 -16.16959961 11.16719727 -17.68164062 11.14648438 C-20.12164231 11.11112203 -22.56054719 11.06177033 -25 11 C-24.25 4.234375 -24.25 4.234375 -22 2.125 C-14.96964918 -0.51138156 -7.41385908 -0.13930007 0 0 Z"/>
<path transform="translate(330,476)" fill="#ECECEC" d="M0 0 C4.66666667 0 9.33333333 0 14 0 C14 5.28 14 10.56 14 16 C12.35 16 10.7 16 9 16 C8.34 15.34 7.68 14.68 7 14 C6.67 14.66 6.34 15.32 6 16 C4.02 16 2.04 16 0 16 C0 10.72 0 5.44 0 0 Z"/>
<path transform="translate(300,476)" fill="#E7E7E7" d="M0 0 C10.49849966 -0.37053528 10.49849966 -0.37053528 12.83984375 1.359375 C14.47394684 3.67022785 14.27100589 5.22218962 14 8 C13.814375 8.680625 13.62875 9.36125 13.4375 10.0625 C12.91957523 12.35616685 13.2883622 13.78601575 14 16 C12.02 16 10.04 16 8 16 C7.67 15.34 7.34 14.68 7 14 C6.67 14.66 6.34 15.32 6 16 C4.02 16 2.04 16 0 16 C0 10.72 0 5.44 0 0 Z"/>
<path transform="translate(396,469)" fill="#EDEDED" d="M0 0 C0.33 0 0.66 0 1 0 C1 30.36 1 60.72 1 92 C0.67 92 0.34 92 0 92 C-0.02578125 91.02160156 -0.0515625 90.04320312 -0.078125 89.03515625 C-0.48816576 79.55762324 -1.80856863 72.47956872 -7.3125 64.625 C-7.869375 63.75875 -8.42625 62.8925 -9 62 C-8 59 -8 59 -5 57.1875 C-1.82455398 55.3492163 -1.82455398 55.3492163 -1.33227539 52.56982422 C-0.87074393 47.61132823 -0.76351886 42.6730167 -0.68359375 37.6953125 C-0.6524221 36.07663773 -0.6524221 36.07663773 -0.62062073 34.42526245 C-0.55544887 30.99190389 -0.4963911 27.55847147 -0.4375 24.125 C-0.39428399 21.79165915 -0.35066873 19.45832566 -0.30664062 17.125 C-0.19980078 11.41674382 -0.09797533 5.70841484 0 0 Z"/>
<path transform="translate(720,542)" fill="#F9F9F9" d="M0 0 C2.20066025 1.59186082 2.90197996 2.46953859 3.3984375 5.15625 C3.39070312 5.9296875 3.38296875 6.703125 3.375 7.5 C3.38273438 8.2734375 3.39046875 9.046875 3.3984375 9.84375 C2.90173068 12.53181041 2.20656639 13.41247034 0 15 C-2.70348746 15.55595912 -5.2789747 15.43172844 -8 15 C-10.17476401 13.45661909 -10.81832637 12.36334727 -12 10 C-12.38080215 6.49662019 -12.40245078 4.63721374 -10.5 1.625 C-6.75900771 -0.80664499 -4.42573582 -0.49174842 0 0 Z"/>
<path transform="translate(498,542)" fill="#F9F9F9" d="M0 0 C2 1 2 1 3 3 C3.38567013 7.04953637 3.50238217 9.74404458 2 13.5 C-0.7207963 15.54059723 -2.79233673 15.49732919 -6.12890625 15.33203125 C-8 15 -8 15 -9.9375 13.625 C-12.12556871 10.27854198 -12.40075527 8.00755272 -12 4 C-8.87063045 -0.95483512 -5.3663324 -0.59625916 0 0 Z"/>
<path transform="translate(562,525)" fill="#F3F3F3" d="M0 0 C9.01875902 -0.48100048 9.01875902 -0.48100048 13.1875 1.5625 C15 4 15 4 15 7.625 C14 11 14 11 11 13 C7.31619572 13.26655603 3.69863419 13.08702669 0 13 C0 8.71 0 4.42 0 0 Z"/>
<path transform="translate(316,476)" fill="#E3E3E3" d="M0 0 C3.63 0 7.26 0 11 0 C11 1.32 11 2.64 11 4 C9.02 4 7.04 4 5 4 C5 4.66 5 5.32 5 6 C6.98 6 8.96 6 11 6 C11.33 9.3 11.66 12.6 12 16 C8.04 16 4.08 16 0 16 C0 10.72 0 5.44 0 0 Z"/>
<path transform="translate(346,476)" fill="#ECECEC" d="M0 0 C4.29 0 8.58 0 13 0 C13 1.32 13 2.64 13 4 C11.68 4 10.36 4 9 4 C9 7.96 9 11.92 9 16 C7.35 16 5.7 16 4 16 C4 12.04 4 8.08 4 4 C2.68 4 1.36 4 0 4 C0 2.68 0 1.36 0 0 Z"/>
<path transform="translate(613,540)" fill="#F0F0F0" d="M0 0 C2.375 1.875 2.375 1.875 4 4 C4 4.66 4 5.32 4 6 C-0.62 6 -5.24 6 -10 6 C-8.50886201 0.03544804 -5.77616228 -0.70728518 0 0 Z"/>
<path transform="translate(395,561)" fill="#D0D0D0" d="M0 0 C0.66 0 1.32 0 2 0 C2 7.59 2 15.18 2 23 C0.68 23 -0.64 23 -2 23 C-1.505 21.515 -1.505 21.515 -1 20 C-0.8535286 18.44733347 -0.75305926 16.89004338 -0.68359375 15.33203125 C-0.64169922 14.43935547 -0.59980469 13.54667969 -0.55664062 12.62695312 C-0.51732422 11.69818359 -0.47800781 10.76941406 -0.4375 9.8125 C-0.37272461 8.40194336 -0.37272461 8.40194336 -0.30664062 6.96289062 C-0.20061335 4.64207146 -0.09854971 2.32114675 0 0 Z"/>
<path transform="translate(329,476)" fill="#181818" d="M0 0 C0.33 0 0.66 0 1 0 C1 5.28 1 10.56 1 16 C0.34 15.34 -0.32 14.68 -1 14 C-1 13.01 -1 12.02 -1 11 C-2.98 11 -4.96 11 -7 11 C-7 10.67 -7 10.34 -7 10 C-5.35 10 -3.7 10 -2 10 C-2 8.68 -2 7.36 -2 6 C-3.98 6 -5.96 6 -8 6 C-8 5.34 -8 4.68 -8 4 C-4.535 3.505 -4.535 3.505 -1 3 C-0.67 2.01 -0.34 1.02 0 0 Z"/>
<path transform="translate(262,580)" fill="#CBCBCB" d="M0 0 C0.94939453 0.47566406 0.94939453 0.47566406 1.91796875 0.9609375 C6.05311469 2.35504247 9.97580212 2.46070521 14.3125 2.625 C15.14845703 2.66367187 15.98441406 2.70234375 16.84570312 2.7421875 C18.89679259 2.83595159 20.94836515 2.91904245 23 3 C23 3.33 23 3.66 23 4 C15.41 4 7.82 4 0 4 C0 2.68 0 1.36 0 0 Z"/>
</svg>