<?xml version="1.0" encoding="UTF-8"?>
<svg version="1.1" xmlns="http://www.w3.org/2000/svg" width="242" height="208">
<path d="M0 0 C79.86 0 159.72 0 242 0 C242 68.64 242 137.28 242 208 C162.14 208 82.28 208 0 208 C0 139.36 0 70.72 0 0 Z " fill="#010101" transform="translate(0,0)"/>
<path d="M0 0 C79.86 0 159.72 0 242 0 C242 30.36 242 60.72 242 92 C240.02 91.01 238.04 90.02 236 89 C232.81271261 88.22979967 232.81271261 88.22979967 229.625 87.8125 C228.56539062 87.65394531 227.50578125 87.49539062 226.4140625 87.33203125 C225.61742187 87.22246094 224.82078125 87.11289063 224 87 C223.690625 87.94875 223.38125 88.8975 223.0625 89.875 C222 93 222 93 221 95 C220.34 95 219.68 95 219 95 C218.8141333 94.15405273 218.6282666 93.30810547 218.43676758 92.43652344 C217.72798463 89.23618821 217.00918008 86.03842565 216.28393555 82.84179688 C215.97468459 81.4696259 215.66921386 80.09659632 215.36791992 78.72265625 C211.71308977 59.99347983 211.71308977 59.99347983 200.15234375 45.79296875 C195.78269417 43.41028892 191.95025818 42.66672688 187 42 C186.9906543 40.99622314 186.98130859 39.99244629 186.97167969 38.95825195 C186.93169769 35.2211529 186.86591744 31.48487002 186.79248047 27.74829102 C186.76431814 26.13348911 186.74308 24.51855057 186.72900391 22.90356445 C186.70750742 20.57692763 186.66082789 18.25192523 186.609375 15.92578125 C186.60753204 14.84892815 186.60753204 14.84892815 186.60565186 13.75032043 C186.46538804 8.91096795 185.43574046 6.40318372 182 3 C179.57503731 1.78751866 178.0237412 1.86626843 175.31340027 1.85282898 C174.32500656 1.84567368 173.33661285 1.83851837 172.31826782 1.83114624 C171.22992645 1.82845734 170.14158508 1.82576843 169.02026367 1.82299805 C167.87708176 1.81642685 166.73389984 1.80985565 165.55607605 1.80308533 C161.76003968 1.78331894 157.96404291 1.77168288 154.16796875 1.76171875 C152.8742013 1.75764322 151.58043385 1.7535677 150.24746132 1.74936867 C144.10772898 1.73064879 137.96801658 1.71608559 131.82826155 1.7077567 C124.74147721 1.69798438 117.65500522 1.67166561 110.56833094 1.63125581 C104.43020148 1.59745628 98.29220335 1.58561164 92.15398598 1.58155251 C89.54284864 1.57667182 86.931715 1.56501605 84.32063866 1.54651451 C80.66947743 1.5222494 77.01913656 1.52306539 73.36791992 1.5300293 C72.28565125 1.51721924 71.20338257 1.50440918 70.08831787 1.49121094 C64.17173117 1.51808758 64.17173117 1.51808758 58.852005 3.90437317 C55.50869842 7.68747471 55.92461084 10.82164967 56 15.640625 C56.0011588 17.20182303 55.99977534 18.76302463 55.99609375 20.32421875 C55.99168031 22.78544567 55.9998511 25.24287397 56.05126953 27.70361328 C56.31507504 41.49647606 56.31507504 41.49647606 53.10546875 45.16601562 C50.75 46.609375 50.75 46.609375 48.28076172 47.81518555 C40.25617057 51.98381548 38.41654842 63.95323823 35.875 71.9375 C35.44240189 73.27050581 35.00881399 74.60319084 34.57421875 75.93554688 C33.74567746 78.47998038 32.92337236 81.02614027 32.10449219 83.57373047 C30.76593995 87.72608283 29.38914586 91.86434028 28 96 C25.02873292 93.28922757 24.11756266 90.86848614 23 87 C20.91480784 87.2561291 18.8318495 87.53048735 16.75 87.8125 C15.58984375 87.96332031 14.4296875 88.11414063 13.234375 88.26953125 C10.01605334 88.99637443 8.41668345 89.81661025 6 92 C6 95.83138431 6.1094425 97.97835577 8.671875 100.91796875 C12.19968124 104.02800846 15.83437286 106.78701058 20 109 C17.96506964 111.11029815 16.05075757 112.96527114 13.625 114.625 C4.70406272 122.6963242 2.0878015 134.46930409 1 146 C0.67 146 0.34 146 0 146 C0 97.82 0 49.64 0 0 Z " fill="#FDFDFD" transform="translate(0,0)"/>
<path d="M0 0 C1.23008789 -0.00700928 2.46017578 -0.01401855 3.72753906 -0.02124023 C7.08520772 -0.0357846 10.44188474 -0.03243944 13.79949689 -0.01972389 C17.32141731 -0.00955826 20.84329694 -0.01899921 24.36521912 -0.02526855 C30.27724772 -0.0325337 36.18907606 -0.02298622 42.10107422 -0.00390625 C48.92736741 0.01787061 55.75318283 0.01080104 62.5794645 -0.01121187 C68.4514545 -0.02938635 74.32330101 -0.03191457 80.19531006 -0.0214572 C83.6976291 -0.01523472 87.19972382 -0.01435218 90.70202827 -0.02760315 C94.60622746 -0.04134461 98.50989484 -0.02227843 102.4140625 0 C103.56903732 -0.00809692 104.72401215 -0.01619385 105.91398621 -0.02453613 C112.14716521 0.04137175 115.91911862 0.31346101 120.64233398 4.51757812 C127.94970647 11.9948895 129.52674047 21.52226198 131.859375 31.40136719 C132.33401453 33.41027221 132.81667416 35.41712673 133.30053711 37.42382812 C135.64233398 47.23041461 135.64233398 47.23041461 135.64233398 49.51757812 C79.21233398 49.51757812 22.78233398 49.51757812 -35.35766602 49.51757812 C-33.70042216 42.05998076 -31.80901705 34.87730474 -29.60766602 27.58007812 C-29.28540039 26.46439453 -28.96313477 25.34871094 -28.63110352 24.19921875 C-23.15235608 6.07475775 -23.15235608 6.07475775 -14.609869 1.36802769 C-9.92555501 -0.40080612 -4.94354017 -0.03471742 0 0 Z " fill="#FEFEFE" transform="translate(73.357666015625,53.482421875)"/>
<path d="M0 0 C0.33 0 0.66 0 1 0 C1.04487549 1.16571533 1.08975098 2.33143066 1.13598633 3.5324707 C1.30615674 7.85492343 1.49507993 12.17638738 1.68969727 16.49780273 C1.77132197 18.36867982 1.84785062 20.23978645 1.91918945 22.11108398 C2.02258505 24.8000826 2.14424919 27.48772452 2.26953125 30.17578125 C2.29779495 31.01337479 2.32605865 31.85096832 2.35517883 32.71394348 C2.46690573 36.99011943 2.46690573 36.99011943 4.3021698 40.72077942 C7.22688236 42.92438759 10.76095264 42.42568984 14.28125 42.3984375 C15.0911438 42.40130768 15.9010376 42.40417786 16.73547363 42.40713501 C18.44686584 42.40917542 20.15828138 42.40364709 21.86962891 42.39111328 C24.4904389 42.37505857 27.10970677 42.39096194 29.73046875 42.41015625 C31.39323257 42.40817381 33.05599544 42.40433013 34.71875 42.3984375 C35.50318481 42.40451019 36.28761963 42.41058289 37.0958252 42.4168396 C41.6088789 42.35844576 42.66510016 42.33489984 46 39 C46.33 36.03 46.66 33.06 47 30 C95.84 30 144.68 30 195 30 C195.33 32.97 195.66 35.94 196 39 C199.37385946 42.37385946 200.50915615 42.35341627 205.08229065 42.39118958 C206.29645912 42.37737495 206.29645912 42.37737495 207.53515625 42.36328125 C208.36961777 42.36377975 209.20407928 42.36427826 210.06382751 42.36479187 C211.82651147 42.3624526 213.58919884 42.3527327 215.35180664 42.33618164 C218.05580354 42.3125585 220.75881657 42.31562533 223.46289062 42.32226562 C225.17448507 42.31668988 226.88607535 42.30958065 228.59765625 42.30078125 C229.81486107 42.30214836 229.81486107 42.30214836 231.05665588 42.30354309 C235.49927611 42.42661203 235.49927611 42.42661203 239 40 C239.31591436 37.21236568 239.51579091 34.50827874 239.6328125 31.7109375 C239.69515579 30.48330185 239.69515579 30.48330185 239.75875854 29.23086548 C239.88968325 26.61258989 240.00748488 23.99390841 240.125 21.375 C240.21137707 19.60152028 240.29860588 17.82808183 240.38671875 16.0546875 C240.6010381 11.7035425 240.80358896 7.35198867 241 3 C241.33 3 241.66 3 242 3 C242 16.53 242 30.06 242 44 C162.14 44 82.28 44 0 44 C0 29.48 0 14.96 0 0 Z " fill="#FBFBFB" transform="translate(0,164)"/>
<path d="M0 0 C7.73969451 0.53350542 15.41705828 1.28895088 23.09765625 2.39453125 C24.28669556 2.55248169 24.28669556 2.55248169 25.49975586 2.71362305 C31.52016866 3.65004624 35.95346081 5.52438369 39.84765625 10.45703125 C41.18095192 13.56805447 41.34517471 15.72936508 40.97265625 19.08203125 C38.09409274 21.96059476 35.15631788 21.42513993 31.296875 21.453125 C30.15361504 21.46666771 30.15361504 21.46666771 28.98725891 21.48048401 C27.37248674 21.49500362 25.7576555 21.5038775 24.14282227 21.50756836 C21.67948178 21.51943813 19.21866871 21.56857719 16.75585938 21.61914062 C15.18621013 21.62860811 13.61654551 21.63584159 12.046875 21.640625 C11.31337326 21.66015732 10.57987152 21.67968964 9.82414246 21.69981384 C5.85195005 21.66502188 4.16524907 21.23985171 1.05322266 18.68969727 C-2.41860408 14.33830307 -4.69389491 9.69404717 -5.40234375 4.14453125 C-4.75091346 0.56166464 -3.52489457 0.09551327 0 0 Z " fill="#FAFAFA" transform="translate(30.02734375,140.91796875)"/>
<path d="M0 0 C-0.41042281 6.2931497 -2.44568505 11.75954103 -6 17 C-9.63642632 19.5295196 -13.49646591 19.2896933 -17.7578125 19.265625 C-18.50207489 19.26753845 -19.24633728 19.2694519 -20.01315308 19.27142334 C-21.58152608 19.27278104 -23.14991047 19.2691136 -24.71826172 19.26074219 C-27.12362719 19.25000613 -29.52825097 19.26066664 -31.93359375 19.2734375 C-33.45833498 19.27211642 -34.98307576 19.26955511 -36.5078125 19.265625 C-37.22865021 19.26967346 -37.94948792 19.27372192 -38.69216919 19.27789307 C-43.7700556 19.2299444 -43.7700556 19.2299444 -46 17 C-46.52549734 13.14635287 -46.14588927 11.27556862 -44.3125 7.8125 C-39.65638487 2.14965727 -34.67852039 1.32916243 -27.75 0.375 C-26.53763672 0.19324219 -26.53763672 0.19324219 -25.30078125 0.0078125 C-4.56642673 -3.04428449 -4.56642673 -3.04428449 0 0 Z " fill="#FAFAFA" transform="translate(217,143)"/>
<path d="M0 0 C9 0 9 0 11.19140625 1.75 C11.87009766 2.86375 11.87009766 2.86375 12.5625 4 C13.03816406 4.7425 13.51382813 5.485 14.00390625 6.25 C14.33261719 6.8275 14.66132813 7.405 15 8 C15.33 5.36 15.66 2.72 16 0 C19.3 0 22.6 0 26 0 C26 9.57 26 19.14 26 29 C17 29 17 29 14.80859375 27.03125 C14.12990234 25.77828125 14.12990234 25.77828125 13.4375 24.5 C12.96183594 23.6646875 12.48617187 22.829375 11.99609375 21.96875 C11.66738281 21.3190625 11.33867187 20.669375 11 20 C10.67 22.97 10.34 25.94 10 29 C6.7 29 3.4 29 0 29 C0 19.43 0 9.86 0 0 Z " fill="#F4F4F4" transform="translate(122,13)"/>
<path d="M0 0 C4.5478125 -0.12375 4.5478125 -0.12375 9.1875 -0.25 C10.60712036 -0.30462402 10.60712036 -0.30462402 12.05541992 -0.36035156 C16.11389428 -0.41376955 18.45824124 -0.30868457 22.05078125 1.73828125 C25.07235744 5.24427848 25.32527555 8.47053799 25 13 C23.5 15.75 23.5 15.75 22 18 C22.29493609 21.83416911 23.73690572 25.37912974 25 29 C21.7 29 18.4 29 15 29 C13.68 26.36 12.36 23.72 11 21 C10.67 23.64 10.34 26.28 10 29 C6.7 29 3.4 29 0 29 C0 19.43 0 9.86 0 0 Z " fill="#F4F4F4" transform="translate(68,13)"/>
<path d="M0 0 C6.6 0 13.2 0 20 0 C20 2.31 20 4.62 20 7 C19 8 19 8 16.93359375 8.09765625 C16.10988281 8.08605469 15.28617188 8.07445312 14.4375 8.0625 C13.61121094 8.05347656 12.78492187 8.04445313 11.93359375 8.03515625 C11.29550781 8.02355469 10.65742187 8.01195312 10 8 C10 8.99 10 9.98 10 11 C12.97 11 15.94 11 19 11 C19 13.31 19 15.62 19 18 C16.03 18 13.06 18 10 18 C10 18.99 10 19.98 10 21 C13.63 21 17.26 21 21 21 C21 23.64 21 26.28 21 29 C14.07 29 7.14 29 0 29 C0 19.43 0 9.86 0 0 Z " fill="#F0F0F0" transform="translate(97,13)"/>
<path d="M0 0 C7.59 0 15.18 0 23 0 C23 2.31 23 4.62 23 7 C20.69 7 18.38 7 16 7 C16 14.26 16 21.52 16 29 C13.03 29 10.06 29 7 29 C7 21.74 7 14.48 7 7 C4.69 7 2.38 7 0 7 C0 4.69 0 2.38 0 0 Z " fill="#FBFBFB" transform="translate(151,13)"/>
<path d="M0 0 C0.33 0 0.66 0 1 0 C1 15.51 1 31.02 1 47 C0.67 47 0.34 47 0 47 C-0.25523437 45.83984375 -0.25523437 45.83984375 -0.515625 44.65625 C-2.95977248 34.15161615 -6.32361789 27.43572431 -13.29296875 19.19921875 C-15 17 -15 17 -16 14 C-15.18015625 13.49210937 -14.3603125 12.98421875 -13.515625 12.4609375 C-12.43796875 11.77257812 -11.3603125 11.08421875 -10.25 10.375 C-9.18265625 9.70210937 -8.1153125 9.02921875 -7.015625 8.3359375 C-3.68211416 5.75376201 -2.17616311 3.54897629 0 0 Z " fill="#F8F8F8" transform="translate(241,96)"/>
<path d="M0 0 C0.33 0 0.66 0 1 0 C1.04487549 1.16571533 1.08975098 2.33143066 1.13598633 3.5324707 C1.30615674 7.85492343 1.49507993 12.17638738 1.68969727 16.49780273 C1.77132197 18.36867982 1.84785062 20.23978645 1.91918945 22.11108398 C2.02258505 24.8000826 2.14424919 27.48772452 2.26953125 30.17578125 C2.29779495 31.01337479 2.32605865 31.85096832 2.35517883 32.71394348 C2.46573347 36.99024277 2.46573347 36.99024277 4.30493164 40.71801758 C7.19839967 42.90635124 10.6755503 42.4828106 14.16796875 42.51171875 C15.36018791 42.53864555 15.36018791 42.53864555 16.57649231 42.56611633 C19.11344101 42.6202697 21.65020107 42.65413028 24.1875 42.6875 C25.90822941 42.72066874 27.6289339 42.75515799 29.34960938 42.79101562 C33.56627022 42.87599873 37.78287464 42.94278542 42 43 C42 43.33 42 43.66 42 44 C28.14 44 14.28 44 0 44 C0 29.48 0 14.96 0 0 Z " fill="#C5C5C5" transform="translate(0,164)"/>
<path d="M0 0 C0.33 0 0.66 0 1 0 C1 13.53 1 27.06 1 41 C-12.86 41 -26.72 41 -41 41 C-41 40.67 -41 40.34 -41 40 C-39.88963379 39.98018066 -38.77926758 39.96036133 -37.63525391 39.93994141 C-33.52385398 39.86398919 -29.41281282 39.7752564 -25.30175781 39.68261719 C-23.52090527 39.64428435 -21.73997416 39.60943911 -19.95898438 39.578125 C-17.40205766 39.53256729 -14.8456739 39.47455893 -12.2890625 39.4140625 C-11.49005524 39.40251129 -10.69104797 39.39096008 -9.86782837 39.37905884 C-5.46542788 39.42741056 -5.46542788 39.42741056 -2 37 C-1.68408564 34.21236568 -1.48420909 31.50827874 -1.3671875 28.7109375 C-1.32562531 27.89251373 -1.28406311 27.07408997 -1.24124146 26.23086548 C-1.11031675 23.61258989 -0.99251512 20.99390841 -0.875 18.375 C-0.78862293 16.60152028 -0.70139412 14.82808183 -0.61328125 13.0546875 C-0.3989619 8.7035425 -0.19641104 4.35198867 0 0 Z " fill="#B8B8B8" transform="translate(241,167)"/>
<path d="M0 0 C3.68802044 1.22934015 4.72356973 2.93859378 7 6 C4.69 6 2.38 6 0 6 C0 4.02 0 2.04 0 0 Z " fill="#F4F4F4" transform="translate(0,202)"/>
<path d="M0 0 C1.65 0 3.3 0 5 0 C4.67 1.65 4.34 3.3 4 5 C2.68 5 1.36 5 0 5 C0 3.35 0 1.7 0 0 Z " fill="#101010" transform="translate(78,21)"/>
<path d="M0 0 C0.66 0 1.32 0 2 0 C2 1.98 2 3.96 2 6 C-0.31 6 -2.62 6 -5 6 C-3.38405168 3.95880212 -1.7143618 1.95927063 0 0 Z " fill="#FAFAFA" transform="translate(240,202)"/>
</svg>
